<mxfile host="drawio-plugin" modified="2021-11-23T06:39:33.750Z" agent="5.0 (Windows NT 6.2; Win64; x64) AppleWebKit/537.36 (KHTML, like Gecko) Chrome/89.0.4389.114 Safari/537.36" etag="kizQ4vxCKO8JkSf6v7mn" version="14.7.4" type="embed"><diagram id="R151viDLCZB1CpiNg5Rz" name="Page-1"><mxGraphModel dx="825" dy="431" grid="1" gridSize="10" guides="1" tooltips="1" connect="1" arrows="1" fold="1" page="1" pageScale="1" pageWidth="850" pageHeight="1100" math="0" shadow="0"><root><mxCell id="0"/><mxCell id="1" parent="0"/><mxCell id="11" value="" style="rounded=0;whiteSpace=wrap;html=1;labelBackgroundColor=none;fontColor=#121212;fillColor=#132A0A;gradientColor=#ffffff;" parent="1" vertex="1"><mxGeometry x="195" y="70" width="575" height="270" as="geometry"/></mxCell><mxCell id="p6JP51xD61qtKjCmikpi-7" style="edgeStyle=orthogonalEdgeStyle;rounded=0;orthogonalLoop=1;jettySize=auto;html=1;entryX=0.008;entryY=0.4;entryDx=0;entryDy=0;entryPerimeter=0;" parent="1" source="p6JP51xD61qtKjCmikpi-1" edge="1"><mxGeometry relative="1" as="geometry"><mxPoint x="250.96000000000004" y="210" as="targetPoint"/></mxGeometry></mxCell><mxCell id="p6JP51xD61qtKjCmikpi-1" value="File" style="verticalLabelPosition=bottom;html=1;verticalAlign=top;strokeWidth=1;align=center;outlineConnect=0;dashed=0;outlineConnect=0;shape=mxgraph.aws3d.file;aspect=fixed;strokeColor=#292929;" parent="1" vertex="1"><mxGeometry x="122" y="175" width="30.8" height="70.6" as="geometry"/></mxCell><mxCell id="p6JP51xD61qtKjCmikpi-9" style="edgeStyle=orthogonalEdgeStyle;rounded=0;orthogonalLoop=1;jettySize=auto;html=1;" parent="1" source="p6JP51xD61qtKjCmikpi-2" edge="1"><mxGeometry relative="1" as="geometry"><mxPoint x="440" y="211" as="targetPoint"/></mxGeometry></mxCell><mxCell id="p6JP51xD61qtKjCmikpi-2" value="Spring Batch" style="rounded=0;whiteSpace=wrap;html=1;" parent="1" vertex="1"><mxGeometry x="250" y="181" width="120" height="60" as="geometry"/></mxCell><mxCell id="p6JP51xD61qtKjCmikpi-10" style="edgeStyle=orthogonalEdgeStyle;rounded=0;orthogonalLoop=1;jettySize=auto;html=1;entryX=0;entryY=0.5;entryDx=0;entryDy=0;" parent="1" source="p6JP51xD61qtKjCmikpi-3" target="p6JP51xD61qtKjCmikpi-4" edge="1"><mxGeometry relative="1" as="geometry"><Array as="points"><mxPoint x="564" y="210"/><mxPoint x="564" y="138"/></Array></mxGeometry></mxCell><mxCell id="p6JP51xD61qtKjCmikpi-3" value="Kafka Broker" style="shape=cylinder3;whiteSpace=wrap;html=1;boundedLbl=1;backgroundOutline=1;size=15;direction=south;" parent="1" vertex="1"><mxGeometry x="448" y="180" width="80" height="60" as="geometry"/></mxCell><mxCell id="p6JP51xD61qtKjCmikpi-4" value="Consumer-App-1" style="rounded=0;whiteSpace=wrap;html=1;" parent="1" vertex="1"><mxGeometry x="600" y="108" width="120" height="60" as="geometry"/></mxCell><mxCell id="p6JP51xD61qtKjCmikpi-5" value="&lt;span&gt;Consumer-App-2&lt;/span&gt;" style="rounded=0;whiteSpace=wrap;html=1;" parent="1" vertex="1"><mxGeometry x="600" y="178" width="120" height="60" as="geometry"/></mxCell><mxCell id="4" style="edgeStyle=orthogonalEdgeStyle;rounded=0;orthogonalLoop=1;jettySize=auto;html=1;exitX=1;exitY=0.5;exitDx=0;exitDy=0;fontColor=#121212;" parent="1" source="2" edge="1"><mxGeometry relative="1" as="geometry"><mxPoint x="230" y="400" as="targetPoint"/></mxGeometry></mxCell><mxCell id="2" value="Frontend/Client Apps" style="rounded=0;whiteSpace=wrap;html=1;" parent="1" vertex="1"><mxGeometry x="70" y="370" width="120" height="60" as="geometry"/></mxCell><mxCell id="14" style="edgeStyle=orthogonalEdgeStyle;rounded=0;orthogonalLoop=1;jettySize=auto;html=1;fontColor=#121212;" parent="1" target="5" edge="1"><mxGeometry relative="1" as="geometry"><mxPoint x="450" y="341" as="sourcePoint"/><Array as="points"><mxPoint x="450" y="341"/><mxPoint x="450" y="400"/></Array></mxGeometry></mxCell><mxCell id="5" value="" style="aspect=fixed;html=1;points=[];align=center;image;fontSize=12;image=img/lib/mscae/Application_Gateway.svg;labelBackgroundColor=none;fontColor=#121212;fillColor=#132A0A;gradientColor=#ffffff;" parent="1" vertex="1"><mxGeometry x="230" y="375" width="50" height="50" as="geometry"/></mxCell><mxCell id="8" style="edgeStyle=orthogonalEdgeStyle;rounded=0;orthogonalLoop=1;jettySize=auto;html=1;entryX=-0.025;entryY=0.5;entryDx=0;entryDy=0;entryPerimeter=0;fontColor=#121212;exitX=0.4;exitY=0.9;exitDx=0;exitDy=0;exitPerimeter=0;" parent="1" edge="1"><mxGeometry relative="1" as="geometry"><Array as="points"><mxPoint x="254" y="544"/></Array><mxPoint x="254" y="424" as="sourcePoint"/><mxPoint x="349.0135" y="544" as="targetPoint"/></mxGeometry></mxCell><mxCell id="9" style="edgeStyle=orthogonalEdgeStyle;rounded=0;orthogonalLoop=1;jettySize=auto;html=1;fontColor=#121212;exitX=0.53;exitY=1;exitDx=0;exitDy=0;exitPerimeter=0;" parent="1" source="11" target="7" edge="1"><mxGeometry relative="1" as="geometry"><mxPoint x="500" y="350" as="sourcePoint"/><Array as="points"><mxPoint x="500" y="540"/></Array></mxGeometry></mxCell><mxCell id="7" value="&lt;b&gt;&lt;font color=&quot;#000000&quot;&gt;Eureka Server&lt;/font&gt;&lt;/b&gt;" style="points=[];aspect=fixed;html=1;align=center;shadow=0;dashed=0;image;image=img/lib/allied_telesis/storage/Datacenter_Server_Rack.svg;labelBackgroundColor=none;fontColor=#121212;fillColor=#132A0A;gradientColor=#ffffff;" parent="1" vertex="1"><mxGeometry x="350" y="500" width="39.46" height="80" as="geometry"/></mxCell><mxCell id="13" style="edgeStyle=orthogonalEdgeStyle;rounded=0;orthogonalLoop=1;jettySize=auto;html=1;exitX=0;exitY=0.5;exitDx=0;exitDy=0;fontColor=#121212;entryX=0;entryY=0.5;entryDx=0;entryDy=0;entryPerimeter=0;" parent="1" target="12" edge="1"><mxGeometry relative="1" as="geometry"><mxPoint x="594" y="278" as="targetPoint"/><mxPoint x="554" y="210" as="sourcePoint"/><Array as="points"><mxPoint x="564" y="210"/><mxPoint x="564" y="278"/></Array></mxGeometry></mxCell><mxCell id="12" value="&lt;span&gt;Consumer-App-2&lt;/span&gt;" style="rounded=0;whiteSpace=wrap;html=1;" parent="1" vertex="1"><mxGeometry x="600" y="248" width="120" height="60" as="geometry"/></mxCell></root></mxGraphModel></diagram></mxfile>